<svg xmlns="http://www.w3.org/2000/svg" viewBox="0 0 48 48">
  <defs>
    <linearGradient id="shieldGrad" x1="0%" y1="0%" x2="100%" y2="100%">
      <stop offset="0%" stop-color="#4c6ef5"/>
      <stop offset="100%" stop-color="#1e2030"/>
    </linearGradient>
    <filter id="glow" x="-20%" y="-20%" width="140%" height="140%">
      <feGaussianBlur stdDeviation="2" result="blur" />
      <feComposite in="SourceGraphic" in2="blur" operator="over" />
    </filter>
  </defs>
  <!-- Shield Outline -->
  <path d="M24 2L4 10v12.2c0 10.9 8.5 21.1 20 23.8 11.5-2.7 20-12.9 20-23.8V10L24 2z" fill="url(#shieldGrad)" filter="url(#glow)"/>
  <path d="M24 6.3L8 12.7v9.5c0 9 7.2 17.5 16 19.9 8.8-2.4 16-10.9 16-19.9v-9.5L24 6.3z" fill="#fff"/>
  <!-- Checkmark -->
  <path d="M22 29.5l-5.5-5.5 1.8-1.8 3.7 3.7 8.6-8.6 1.8 1.8L22 29.5z" fill="#4c6ef5"/>
</svg>
